<?xml version="1.0" encoding="utf-8"?>
<!-- Generator: Adobe Illustrator 24.1.2, SVG Export Plug-In . SVG Version: 6.00 Build 0)  -->
<svg version="1.1" id="Слой_1" xmlns="http://www.w3.org/2000/svg" xmlns:xlink="http://www.w3.org/1999/xlink" x="0px" y="0px"
	 viewBox="0 0 12 14" style="enable-background:new 0 0 12 14;" xml:space="preserve">
<style type="text/css">
	.st0{fill:#999999;}
</style>
<path class="st0" d="M0.59,11.82l2.9-2.97c-0.71-0.9-1.16-2-1.16-3.1c0-2.71,2.19-4.84,4.84-4.84S12,3.11,12,5.76
	s-2.19,4.84-4.84,4.84c-1.03,0-1.93-0.32-2.77-0.9l-2.9,2.97c-0.13,0.13-0.26,0.19-0.45,0.19s-0.32-0.06-0.45-0.19
	C0.33,12.46,0.33,12.08,0.59,11.82z M7.16,2.08c-2,0-3.61,1.61-3.61,3.61S5.17,9.3,7.16,9.3s3.61-1.61,3.61-3.61S9.1,2.08,7.16,2.08
	z"/>
</svg>
