<?xml version="1.0" encoding="utf-8"?>
<!-- Generator: Adobe Illustrator 24.1.2, SVG Export Plug-In . SVG Version: 6.00 Build 0)  -->
<svg version="1.1" id="Слой_1" xmlns="http://www.w3.org/2000/svg" xmlns:xlink="http://www.w3.org/1999/xlink" x="0px" y="0px"
	 viewBox="0 0 12 14" style="enable-background:new 0 0 12 14;" xml:space="preserve">
<style type="text/css">
	.st0{fill:#999999;}
</style>
<path class="st0" d="M1.9,10.9L4,8.7C3.5,8,3.1,7.2,3.1,6.4c0-2,1.6-3.6,3.6-3.6s3.6,1.6,3.6,3.6S8.7,10,6.7,10
	c-0.8,0-1.4-0.2-2-0.7l-2.1,2.2c-0.1,0.1-0.2,0.1-0.3,0.1c-0.1,0-0.2,0-0.3-0.1C1.7,11.3,1.7,11.1,1.9,10.9z M6.7,3.7
	C5.2,3.7,4,4.9,4,6.4S5.2,9,6.7,9s2.7-1.2,2.7-2.7S8.1,3.7,6.7,3.7z"/>
</svg>
